<svg width="52" height="69" viewBox="0 0 52 69" fill="none" xmlns="http://www.w3.org/2000/svg">
<mask id="mask0_1891_1583" style="mask-type:alpha" maskUnits="userSpaceOnUse" x="0" y="0" width="52" height="69">
<rect width="52" height="69" fill="#498553"/>
</mask>
<g mask="url(#mask0_1891_1583)">
<path d="M11.7915 7.82736C11.4175 6.96393 12.0505 6 12.9914 6C13.473 6 13.9155 6.26468 14.1434 6.68893L29.9377 36.0972C30.2502 36.6791 30.4138 37.3293 30.4138 37.9898V65.0257C30.4138 67.2207 28.6344 69 26.4395 69C24.1047 69 22.2729 66.9969 22.481 64.6714L24.7763 39.0295C24.8358 38.3647 24.728 37.6955 24.4627 37.0831L11.7915 7.82736Z" fill="#498553"/>
<path d="M30.9169 34.0759C30.5661 32.8548 30.7561 31.5424 31.4387 30.4715L34.6793 25.3874C35.2641 24.4701 36.0105 23.6664 36.8824 23.0155L44.2574 17.5097L44.979 16.9077C45.7848 16.2353 47.0167 16.6137 47.3066 17.6227C47.3672 17.8336 47.3792 18.0555 47.3417 18.2717L46.0034 25.9883C45.8001 27.1606 45.3661 28.2809 44.7266 29.2842L42.4311 32.8854C41.8433 33.8076 41.0431 34.5756 40.0973 35.1253L37.4097 36.6873C34.9126 38.1385 31.7146 36.8523 30.9169 34.0759Z" fill="#498553"/>
</g>
</svg>
