<svg width="41" height="64" viewBox="0 0 41 64" fill="none" xmlns="http://www.w3.org/2000/svg">
<path d="M0.790174 1.82712C0.416716 0.963571 1.04982 0 1.99066 0C2.47262 0 2.91554 0.265062 3.14331 0.68981L18.9389 30.1446C19.2506 30.726 19.4138 31.3754 19.4138 32.035V59.1202C19.4138 61.3153 17.6343 63.0947 15.4392 63.0947C13.1045 63.0947 11.2726 61.0918 11.4804 58.7663L13.7766 33.0762C13.8359 32.4123 13.7284 31.7441 13.4638 31.1323L0.790174 1.82712Z" fill="#498553"/>
<path d="M19.9496 28.2317C19.6057 27.0331 19.7748 25.7455 20.4164 24.6763L23.4514 19.6188C24.0248 18.6632 24.7708 17.8224 25.6512 17.1393L32.6269 11.7267L33.2251 11.2062C34.0285 10.5073 35.2859 10.8794 35.5795 11.9029C35.6373 12.1044 35.6509 12.3161 35.6193 12.5233L34.4252 20.3672C34.2488 21.5258 33.8478 22.6387 33.2448 23.6436L31.0695 27.2686C30.5191 28.1857 29.7513 28.9531 28.8338 29.503L26.5869 30.8499C24.0516 32.3695 20.7647 31.073 19.9496 28.2317Z" fill="#498553"/>
</svg>
