<svg width="20" height="21" viewBox="0 0 20 21" fill="none" xmlns="http://www.w3.org/2000/svg">
<mask id="mask0_1874_1763" style="mask-type:alpha" maskUnits="userSpaceOnUse" x="0" y="0" width="20" height="21">
<rect width="20" height="21" fill="#D9D9D9"/>
</mask>
<g mask="url(#mask0_1874_1763)">
<path d="M11.1842 6.42599C11.0972 6.22465 11.2448 6 11.4641 6C11.5765 6 11.6798 6.0618 11.7329 6.16083L15.0514 12.3491C15.3632 12.9304 15.5263 13.5799 15.5263 14.2395V19.7838C15.5263 20.2956 15.1114 20.7105 14.5996 20.7105C14.0553 20.7105 13.6282 20.2435 13.6767 19.7013L14.1427 14.4874C14.202 13.8236 14.0945 13.1554 13.8299 12.5436L11.1842 6.42599Z" fill="#498553"/>
<path d="M15.6524 12.5819C15.5722 12.3024 15.6116 12.0022 15.7612 11.7529L16.3263 10.8112C16.5542 10.4315 16.8506 10.0974 17.2005 9.82591L18.6081 8.73373L18.7476 8.61238C18.9349 8.44942 19.228 8.53617 19.2965 8.77481C19.31 8.8218 19.3131 8.87114 19.3058 8.91946L19.0831 10.382C19.0052 10.894 18.828 11.3858 18.5615 11.8298L18.245 12.3573C18.1167 12.5711 17.9376 12.7501 17.7237 12.8783L17.1999 13.1923C16.6088 13.5466 15.8424 13.2443 15.6524 12.5819Z" fill="#498553"/>
</g>
</svg>
