<svg width="16" height="25" viewBox="0 0 16 25" fill="none" xmlns="http://www.w3.org/2000/svg">
<path d="M0.301753 0.697742C0.159136 0.36797 0.400906 0 0.760196 0C0.94425 0 1.11339 0.101222 1.20037 0.263426L6.93888 10.9643C7.25062 11.5457 7.41376 12.1951 7.41376 12.8547V22.5769C7.41376 23.4152 6.73422 24.0947 5.89595 24.0947C5.00435 24.0947 4.3048 23.3299 4.38417 22.4418L5.20513 13.2565C5.26446 12.5926 5.15696 11.9244 4.89239 11.3126L0.301753 0.697742Z" fill="#498553"/>
<path d="M7.61934 10.781C7.48803 10.3232 7.55259 9.83153 7.79762 9.42321L8.72324 7.88074C9.09647 7.2588 9.58196 6.71158 10.155 6.26692L12.4606 4.478L12.689 4.27924C12.9958 4.01233 13.476 4.15441 13.5881 4.54529C13.6102 4.62225 13.6154 4.70307 13.6033 4.78222L13.2386 7.17776C13.111 8.01631 12.8208 8.82184 12.3843 9.54914L11.8658 10.4131C11.6556 10.7634 11.3624 11.0565 11.0121 11.2665L10.154 11.7808C9.18583 12.3611 7.93062 11.866 7.61934 10.781Z" fill="#498553"/>
</svg>
